<svg xmlns="http://www.w3.org/2000/svg" viewBox="0 0 64 64">
  <defs>
    <linearGradient id="grad" x1="6" y1="6" x2="58" y2="58" gradientUnits="userSpaceOnUse">
      <stop stop-color="#5C6DFD" />
      <stop offset="0.5" stop-color="#36E6FF" />
      <stop offset="1" stop-color="#9D6CFF" />
    </linearGradient>
  </defs>
  <rect x="6" y="6" width="52" height="52" rx="14" fill="#0B0F1A" />
  <path
    d="M14 17c-1.657 0-3 1.343-3 3v24c0 1.657 1.343 3 3 3h6.5c1.657 0 3-1.343 3-3v-9.5l4.4 7.1c0.94 1.523 2.66 2.307 4.36 1.96a4.03 4.03 0 0 0 3.01-2.26L40 27l4.7 9.3c0.75 1.492 2.36 2.375 4.04 2.21 1.68-0.165 3.12-1.28 3.68-2.89l5.06-14.6C57.88 18.82 56.53 17 54.6 17H48c-1.657 0-3 1.343-3 3v6.1l-3-5.1c-0.78-1.31-2.22-2.09-3.74-2.02-1.52 0.07-2.89 0.97-3.57 2.3l-4.68 9.51-4.74-9.51c-0.68-1.33-2.05-2.23-3.57-2.3-1.52-0.07-2.96 0.71-3.74 2.02L18.5 28.1V20c0-1.657-1.343-3-3-3H14Z"
    fill="url(#grad)"
  />
</svg>
